<?xml version="1.0" encoding="UTF-8" standalone="no"?>
<svg
   id="Layer_2"
   data-name="Layer 2"
   viewBox="0 0 240.6225 51.09"
   version="1.1"
   sodipodi:docname="Asset 2.svg"
   width="240.6225"
   height="51.09"
   inkscape:version="1.2.2 (b0a84865, 2022-12-01)"
   xmlns:inkscape="http://www.inkscape.org/namespaces/inkscape"
   xmlns:sodipodi="http://sodipodi.sourceforge.net/DTD/sodipodi-0.dtd"
   xmlns:xlink="http://www.w3.org/1999/xlink"
   xmlns="http://www.w3.org/2000/svg"
   xmlns:svg="http://www.w3.org/2000/svg">
  <sodipodi:namedview
     id="namedview79613"
     pagecolor="#ffffff"
     bordercolor="#000000"
     borderopacity="0.25"
     inkscape:showpageshadow="2"
     inkscape:pageopacity="0.0"
     inkscape:pagecheckerboard="0"
     inkscape:deskcolor="#d1d1d1"
     showgrid="false"
     inkscape:zoom="5.1782895"
     inkscape:cx="121.95147"
     inkscape:cy="25.5876"
     inkscape:window-width="2235"
     inkscape:window-height="1177"
     inkscape:window-x="0"
     inkscape:window-y="25"
     inkscape:window-maximized="0"
     inkscape:current-layer="Layer_2" />
  <defs
     id="defs79479">
    <style
       id="style79457">
      .cls-1 {
        fill: url(#linear-gradient);
      }

      .cls-2 {
        opacity: .02;
      }

      .cls-3 {
        opacity: .05;
      }

      .cls-4 {
        opacity: .07;
      }

      .cls-5 {
        opacity: .1;
      }

      .cls-6 {
        opacity: .12;
      }

      .cls-7 {
        fill: #023047;
      }

      .cls-8 {
        fill: url(#linear-gradient-8);
      }

      .cls-9 {
        fill: url(#linear-gradient-9);
      }

      .cls-10 {
        fill: url(#linear-gradient-3);
      }

      .cls-11 {
        fill: url(#linear-gradient-4);
      }

      .cls-12 {
        fill: url(#linear-gradient-2);
      }

      .cls-13 {
        fill: url(#linear-gradient-6);
      }

      .cls-14 {
        fill: url(#linear-gradient-7);
      }

      .cls-15 {
        fill: url(#linear-gradient-5);
      }

      .cls-16 {
        opacity: .17;
      }

      .cls-17 {
        opacity: .15;
      }

      .cls-18 {
        opacity: .22;
      }

      .cls-19 {
        opacity: .2;
      }

      .cls-20 {
        opacity: .32;
      }

      .cls-21 {
        opacity: .34;
      }

      .cls-22 {
        opacity: .29;
      }

      .cls-23 {
        opacity: .27;
      }

      .cls-24 {
        opacity: .24;
      }

      .cls-25 {
        opacity: .45;
      }

      .cls-26 {
        opacity: .46;
      }

      .cls-27 {
        opacity: .41;
      }

      .cls-28 {
        opacity: .44;
      }

      .cls-29 {
        opacity: .39;
      }

      .cls-30 {
        opacity: .37;
      }

      .cls-31 {
        opacity: .63;
      }

      .cls-32 {
        opacity: .66;
      }

      .cls-33 {
        opacity: .68;
      }

      .cls-34 {
        opacity: .61;
      }

      .cls-35 {
        opacity: .59;
      }

      .cls-36 {
        opacity: .51;
      }

      .cls-37 {
        opacity: .54;
      }

      .cls-38 {
        opacity: .56;
      }

      .cls-39 {
        opacity: .49;
      }

      .cls-40 {
        opacity: .88;
      }

      .cls-41 {
        opacity: .9;
      }

      .cls-42 {
        opacity: .93;
      }

      .cls-43 {
        opacity: .83;
      }

      .cls-44 {
        opacity: .8;
      }

      .cls-45 {
        opacity: .85;
      }

      .cls-46 {
        opacity: .76;
      }

      .cls-47 {
        opacity: .78;
      }

      .cls-48 {
        opacity: .71;
      }

      .cls-49 {
        opacity: .73;
      }

      .cls-50 {
        opacity: .95;
      }

      .cls-51 {
        opacity: .98;
      }

      .cls-52 {
        fill: url(#linear-gradient-12);
      }

      .cls-53 {
        fill: url(#linear-gradient-10);
      }

      .cls-54 {
        fill: url(#linear-gradient-11);
      }

      .cls-55 {
        opacity: 0;
      }
    </style>
    <linearGradient
       id="linear-gradient"
       x1="29.52"
       y1="21.709999"
       x2="31"
       y2="-2.98"
       gradientUnits="userSpaceOnUse">
      <stop
         offset="0"
         stop-color="#ffb806"
         id="stop79459" />
      <stop
         offset="1"
         stop-color="#fd8400"
         id="stop79461" />
    </linearGradient>
    <linearGradient
       id="linear-gradient-2"
       x1="-0.49000001"
       y1="13.45"
       x2="35.639999"
       y2="10.18"
       xlink:href="#linear-gradient" />
    <linearGradient
       id="linear-gradient-3"
       x1="23.620001"
       y1="19.26"
       x2="7.7600002"
       y2="37.900002"
       xlink:href="#linear-gradient" />
    <linearGradient
       id="linear-gradient-4"
       x1="53.349998"
       y1="35.919998"
       x2="32.259998"
       y2="20.379999"
       xlink:href="#linear-gradient" />
    <linearGradient
       id="linear-gradient-5"
       x1="42.900002"
       y1="23.950001"
       x2="53.200001"
       y2="5.3099999"
       xlink:href="#linear-gradient" />
    <linearGradient
       id="linear-gradient-6"
       x1="43.66"
       y1="34.470001"
       x2="17.99"
       y2="33.330002"
       xlink:href="#linear-gradient" />
    <linearGradient
       id="linear-gradient-7"
       x1="26.09"
       y1="-12.26"
       x2="37.16"
       y2="19.1"
       gradientUnits="userSpaceOnUse">
      <stop
         offset="0"
         stop-color="#ffb805"
         id="stop79469" />
      <stop
         offset="1"
         stop-color="#fc8500"
         id="stop79471" />
    </linearGradient>
    <linearGradient
       id="linear-gradient-8"
       x1="9.4399996"
       y1="27.950001"
       x2="26.809999"
       y2="9.5"
       xlink:href="#linear-gradient-7" />
    <linearGradient
       id="linear-gradient-9"
       x1="11.4"
       y1="33.98"
       x2="28.309999"
       y2="17.99"
       xlink:href="#linear-gradient-7" />
    <linearGradient
       id="linear-gradient-10"
       x1="32.290001"
       y1="23.91"
       x2="51.970001"
       y2="34.52"
       xlink:href="#linear-gradient-7" />
    <linearGradient
       id="linear-gradient-11"
       x1="51.27"
       y1="10.35"
       x2="32.209999"
       y2="23.719999"
       xlink:href="#linear-gradient-7" />
    <linearGradient
       id="linear-gradient-12"
       x1="18.530001"
       y1="33.049999"
       x2="43.099998"
       y2="33.049999"
       xlink:href="#linear-gradient-7" />
    <linearGradient
       inkscape:collect="always"
       xlink:href="#linear-gradient"
       id="linearGradient79732"
       gradientUnits="userSpaceOnUse"
       x1="29.52"
       y1="21.709999"
       x2="31"
       y2="-2.98" />
    <linearGradient
       inkscape:collect="always"
       xlink:href="#linear-gradient-7"
       id="linearGradient79734"
       gradientUnits="userSpaceOnUse"
       x1="26.09"
       y1="-12.26"
       x2="37.16"
       y2="19.1" />
  </defs>
  <g
     id="g79929">
    <g
       id="g79491"
       transform="translate(-0.58684188,1.905)">
      <path
         class="cls-7"
         d="m 68.31,31.85 c -2.87,-2.57 -4.3,-6.24 -4.3,-11.01 0,-4.77 1.43,-8.58 4.3,-11.37 2.87,-2.79 7.33,-4.18 13.38,-4.18 8.46,0 14.13,2.91 17,8.72 -2.41,0.83 -5.24,2.08 -8.48,3.74 -0.78,-1.5 -2,-2.61 -3.68,-3.33 -1.68,-0.72 -3.38,-1.08 -5.12,-1.08 -2.57,0 -4.49,0.68 -5.75,2.03 -1.26,1.35 -1.89,3.02 -1.89,5 0,2.14 0.68,3.89 2.03,5.24 1.35,1.35 3.42,2.03 6.21,2.03 2.22,0 3.99,-0.37 5.3,-1.1 1.31,-0.74 2.28,-1.91 2.89,-3.52 2.2,1.18 5.01,2.5 8.44,3.98 -1.34,3.24 -3.58,5.5 -6.71,6.79 -3.13,1.29 -6.55,1.93 -10.25,1.93 -6.05,0 -10.51,-1.29 -13.38,-3.86 z"
         id="path79481" />
      <path
         class="cls-7"
         d="m 132.45,21.76 c -1.14,1.61 -3.09,2.77 -5.85,3.5 0.32,0.43 0.55,0.76 0.68,1 l 6.51,9.04 h -10.93 c -1.18,-2.2 -3.04,-5.3 -5.58,-9.32 h -5.91 v 9.32 h -9.48 c 0.21,-5.2 0.32,-10.06 0.32,-14.58 0,-4.52 -0.11,-9.39 -0.32,-14.58 h 9.48 v 0.04 h 8.24 c 5.41,0 9.19,0.87 11.33,2.61 2.14,1.74 3.21,4.1 3.21,7.07 0,2.33 -0.57,4.3 -1.71,5.91 z m -21.07,-7.87 v 4.58 h 5.42 c 2.28,0 4,-0.07 5.16,-0.22 1.17,-0.15 1.98,-0.38 2.43,-0.7 0.46,-0.32 0.68,-0.79 0.68,-1.41 0,-0.62 -0.21,-1.04 -0.64,-1.37 -0.43,-0.32 -1.23,-0.55 -2.41,-0.68 -1.18,-0.13 -2.92,-0.2 -5.22,-0.2 z"
         id="path79483" />
      <path
         class="cls-7"
         d="m 146.85,27.95 c 10.18,-0.05 17.56,-0.2 22.14,-0.44 -0.19,1.1 -0.3,2.23 -0.34,3.4 -0.04,1.17 -0.06,2.63 -0.06,4.4 h -31.22 c 0.21,-5.2 0.32,-10.06 0.32,-14.58 0,-4.52 -0.11,-9.39 -0.32,-14.58 h 31.22 v 7.27 h -21.74 v 3.86 c 1.29,0.03 3.19,0.04 5.71,0.04 4.26,0 8.66,-0.08 13.22,-0.24 v 6.91 c -4.55,-0.16 -8.96,-0.24 -13.22,-0.24 -2.52,0 -4.42,0.01 -5.71,0.04 v 4.18 z"
         id="path79485" />
      <path
         class="cls-7"
         d="m 181.68,27.95 c 10.18,-0.05 17.56,-0.2 22.14,-0.44 -0.19,1.1 -0.3,2.23 -0.34,3.4 -0.04,1.17 -0.06,2.63 -0.06,4.4 H 172.2 c 0.21,-5.2 0.32,-10.06 0.32,-14.58 0,-4.52 -0.11,-9.39 -0.32,-14.58 h 31.22 v 7.27 h -21.74 v 3.86 c 1.29,0.03 3.19,0.04 5.71,0.04 4.26,0 8.66,-0.08 13.22,-0.24 v 6.91 c -4.55,-0.16 -8.96,-0.24 -13.22,-0.24 -2.52,0 -4.42,0.01 -5.71,0.04 v 4.18 z"
         id="path79487" />
      <path
         class="cls-7"
         d="m 228.01,35.3 c -1.26,-2.28 -3.35,-5.76 -6.27,-10.45 l -4.7,4.66 v 5.79 h -10 c 0.21,-5.2 0.32,-10.06 0.32,-14.58 0,-4.52 -0.11,-9.39 -0.32,-14.58 h 10 v 11.77 c 4.93,-4.87 8.44,-8.8 10.53,-11.77 h 13.02 l -12.66,12.54 c 1.87,2.63 3.98,5.48 6.33,8.56 2.34,3.08 4.47,5.77 6.37,8.08 h -12.62 z"
         id="path79489" />
    </g>
    <g
       id="g79607"
       transform="translate(-0.0075)">
      <g
         class="cls-25"
         id="g79577">
        <path
           class="cls-55"
           d="m 16.34,51.09 c -2.55,0 -5.68,-1.81 -6.95,-4.01 L 0.96,32.47 c -1.27,-2.21 -1.27,-5.82 0,-8.03 L 9.39,9.84 c 1.27,-2.21 4.4,-4.01 6.95,-4.01 H 33.2 c 2.55,0 5.68,1.81 6.95,4.01 l 8.43,14.6 c 1.27,2.21 1.27,5.82 0,8.03 l -8.43,14.6 c -1.27,2.21 -4.4,4.01 -6.95,4.01 H 16.34 Z"
           id="path79493" />
        <path
           class="cls-2"
           d="m 16.43,50.85 c -2.52,0 -5.62,-1.79 -6.88,-3.97 L 1.21,32.43 c -1.27,-2.18 -1.27,-5.76 0,-7.94 L 9.55,10.04 c 1.26,-2.18 4.36,-3.97 6.88,-3.97 h 16.68 c 2.52,0 5.62,1.79 6.88,3.97 l 8.34,14.45 c 1.26,2.18 1.26,5.76 0,7.94 l -8.34,14.45 c -1.26,2.18 -4.36,3.97 -6.88,3.97 z"
           id="path79495" />
        <path
           class="cls-3"
           d="m 16.51,50.61 c -2.5,0 -5.56,-1.77 -6.81,-3.93 L 1.45,32.39 C 0.2,30.23 0.2,26.69 1.45,24.53 L 9.7,10.23 C 10.95,8.07 14.01,6.3 16.51,6.3 h 16.51 c 2.5,0 5.56,1.77 6.81,3.93 l 8.25,14.3 c 1.25,2.16 1.25,5.7 0,7.86 l -8.25,14.29 c -1.25,2.16 -4.31,3.93 -6.81,3.93 z"
           id="path79497" />
        <path
           class="cls-4"
           d="m 16.6,50.38 c -2.47,0 -5.5,-1.75 -6.73,-3.89 L 1.7,32.35 C 0.47,30.21 0.47,26.71 1.7,24.57 L 9.86,10.43 c 1.23,-2.14 4.27,-3.89 6.73,-3.89 h 16.33 c 2.47,0 5.5,1.75 6.73,3.89 l 8.16,14.14 c 1.23,2.14 1.23,5.64 0,7.78 l -8.16,14.14 c -1.23,2.14 -4.27,3.89 -6.73,3.89 H 16.59 Z"
           id="path79499" />
        <path
           class="cls-5"
           d="m 16.69,50.14 c -2.44,0 -5.44,-1.73 -6.66,-3.85 L 1.95,32.3 c -1.22,-2.12 -1.22,-5.58 0,-7.69 L 10.03,10.62 C 11.25,8.5 14.25,6.77 16.69,6.77 h 16.15 c 2.44,0 5.44,1.73 6.66,3.85 l 8.08,13.99 c 1.22,2.12 1.22,5.58 0,7.69 L 39.5,46.29 c -1.22,2.12 -4.22,3.85 -6.66,3.85 z"
           id="path79501" />
        <path
           class="cls-6"
           d="m 16.78,49.9 c -2.42,0 -5.38,-1.71 -6.59,-3.8 L 2.2,32.26 c -1.21,-2.09 -1.21,-5.52 0,-7.61 l 7.99,-13.84 c 1.21,-2.09 4.17,-3.8 6.59,-3.8 h 15.98 c 2.42,0 5.38,1.71 6.59,3.8 l 7.99,13.84 c 1.21,2.09 1.21,5.52 0,7.61 L 39.35,46.1 c -1.21,2.09 -4.17,3.8 -6.59,3.8 z"
           id="path79503" />
        <path
           class="cls-17"
           d="m 16.87,49.67 c -2.39,0 -5.32,-1.69 -6.52,-3.76 L 2.45,32.23 c -1.19,-2.07 -1.19,-5.46 0,-7.52 l 7.9,-13.68 c 1.19,-2.07 4.13,-3.76 6.52,-3.76 h 15.8 c 2.39,0 5.32,1.69 6.52,3.76 l 7.9,13.68 c 1.19,2.07 1.19,5.45 0,7.52 l -7.9,13.68 c -1.19,2.07 -4.13,3.76 -6.52,3.76 z"
           id="path79505" />
        <path
           class="cls-16"
           d="m 16.96,49.43 c -2.36,0 -5.26,-1.67 -6.44,-3.72 L 2.71,32.18 c -1.18,-2.05 -1.18,-5.39 0,-7.44 L 10.52,11.21 C 11.7,9.16 14.6,7.49 16.96,7.49 h 15.62 c 2.36,0 5.26,1.67 6.44,3.72 l 7.81,13.53 c 1.18,2.05 1.18,5.39 0,7.44 l -7.81,13.53 c -1.18,2.05 -4.08,3.72 -6.44,3.72 z"
           id="path79507" />
        <path
           class="cls-19"
           d="m 17.04,49.19 c -2.34,0 -5.2,-1.65 -6.37,-3.68 L 2.95,32.13 C 1.78,30.11 1.78,26.8 2.95,24.77 L 10.67,11.39 C 11.84,9.37 14.7,7.71 17.04,7.71 h 15.45 c 2.34,0 5.2,1.66 6.37,3.68 l 7.72,13.38 c 1.17,2.02 1.17,5.33 0,7.36 l -7.72,13.38 c -1.17,2.02 -4.03,3.68 -6.37,3.68 z"
           id="path79509" />
        <path
           class="cls-18"
           d="m 17.13,48.96 c -2.31,0 -5.14,-1.64 -6.3,-3.64 L 3.19,32.09 c -1.15,-2 -1.15,-5.27 0,-7.27 l 7.64,-13.23 c 1.15,-2 3.99,-3.64 6.3,-3.64 H 32.4 c 2.31,0 5.14,1.64 6.3,3.64 l 7.64,13.23 c 1.15,2 1.15,5.27 0,7.27 L 38.7,45.32 c -1.15,2 -3.99,3.64 -6.3,3.64 z"
           id="path79511" />
        <path
           class="cls-24"
           d="M 17.22,48.72 C 14.94,48.72 12.14,47.1 11,45.13 L 3.45,32.06 c -1.14,-1.98 -1.14,-5.21 0,-7.19 L 11,11.8 c 1.14,-1.98 3.94,-3.59 6.22,-3.59 h 15.09 c 2.28,0 5.08,1.62 6.22,3.59 l 7.55,13.07 c 1.14,1.98 1.14,5.21 0,7.19 l -7.55,13.07 c -1.14,1.98 -3.94,3.59 -6.22,3.59 z"
           id="path79513" />
        <path
           class="cls-23"
           d="m 17.31,48.48 c -2.26,0 -5.02,-1.6 -6.15,-3.55 L 3.7,32.01 c -1.13,-1.95 -1.13,-5.15 0,-7.1 l 7.46,-12.92 c 1.13,-1.95 3.9,-3.55 6.15,-3.55 h 14.92 c 2.26,0 5.02,1.6 6.15,3.55 l 7.46,12.92 c 1.13,1.95 1.13,5.15 0,7.1 l -7.46,12.92 c -1.13,1.95 -3.9,3.55 -6.15,3.55 z"
           id="path79515" />
        <path
           class="cls-22"
           d="m 17.4,48.25 c -2.23,0 -4.96,-1.58 -6.08,-3.51 L 3.95,31.97 c -1.11,-1.93 -1.11,-5.09 0,-7.02 l 7.37,-12.77 c 1.11,-1.93 3.85,-3.51 6.08,-3.51 h 14.74 c 2.23,0 4.96,1.58 6.08,3.51 l 7.37,12.77 c 1.11,1.93 1.11,5.09 0,7.02 l -7.37,12.77 c -1.11,1.93 -3.85,3.51 -6.08,3.51 z"
           id="path79517" />
        <path
           class="cls-20"
           d="m 17.49,48.01 c -2.2,0 -4.91,-1.56 -6.01,-3.47 L 4.2,31.93 C 3.1,30.02 3.1,26.9 4.2,24.99 l 7.28,-12.61 c 1.1,-1.91 3.8,-3.47 6.01,-3.47 h 14.57 c 2.2,0 4.91,1.56 6.01,3.47 l 7.28,12.61 c 1.1,1.91 1.1,5.03 0,6.94 l -7.28,12.61 c -1.1,1.91 -3.8,3.47 -6.01,3.47 z"
           id="path79519" />
        <path
           class="cls-21"
           d="m 17.57,47.77 c -2.18,0 -4.85,-1.54 -5.93,-3.43 L 4.45,31.88 C 3.36,30 3.36,26.91 4.45,25.03 l 7.19,-12.46 c 1.09,-1.88 3.76,-3.43 5.93,-3.43 h 14.39 c 2.18,0 4.85,1.54 5.93,3.43 l 7.19,12.46 c 1.09,1.88 1.09,4.97 0,6.85 l -7.19,12.46 c -1.09,1.88 -3.76,3.43 -5.93,3.43 z"
           id="path79521" />
        <path
           class="cls-30"
           d="m 17.66,47.53 c -2.15,0 -4.79,-1.52 -5.86,-3.38 L 4.69,31.84 c -1.07,-1.86 -1.07,-4.91 0,-6.77 L 11.8,12.76 c 1.07,-1.86 3.71,-3.38 5.86,-3.38 h 14.21 c 2.15,0 4.79,1.52 5.86,3.38 l 7.11,12.31 c 1.07,1.86 1.07,4.91 0,6.77 l -7.11,12.31 c -1.07,1.86 -3.71,3.38 -5.86,3.38 z"
           id="path79523" />
        <path
           class="cls-29"
           d="m 17.75,47.3 c -2.12,0 -4.73,-1.5 -5.79,-3.34 L 4.94,31.8 c -1.06,-1.84 -1.06,-4.85 0,-6.68 l 7.02,-12.16 c 1.06,-1.84 3.67,-3.34 5.79,-3.34 h 14.04 c 2.12,0 4.73,1.5 5.79,3.34 l 7.02,12.16 c 1.06,1.84 1.06,4.85 0,6.68 l -7.02,12.16 c -1.06,1.84 -3.67,3.34 -5.79,3.34 z"
           id="path79525" />
        <path
           class="cls-27"
           d="m 17.84,47.06 c -2.1,0 -4.67,-1.48 -5.72,-3.3 l -6.93,-12 c -1.05,-1.82 -1.05,-4.78 0,-6.6 l 6.93,-12 c 1.05,-1.81 3.62,-3.3 5.72,-3.3 H 31.7 c 2.1,0 4.67,1.48 5.72,3.3 l 6.93,12 c 1.05,1.81 1.05,4.78 0,6.6 l -6.93,12 c -1.05,1.82 -3.62,3.3 -5.72,3.3 z"
           id="path79527" />
        <path
           class="cls-28"
           d="m 17.93,46.82 c -2.07,0 -4.61,-1.47 -5.64,-3.26 L 5.45,31.71 c -1.03,-1.79 -1.03,-4.72 0,-6.52 l 6.84,-11.85 c 1.03,-1.79 3.57,-3.26 5.64,-3.26 h 13.68 c 2.07,0 4.61,1.47 5.64,3.26 l 6.84,11.85 c 1.03,1.79 1.03,4.72 0,6.52 l -6.84,11.85 c -1.03,1.79 -3.57,3.26 -5.64,3.26 z"
           id="path79529" />
        <path
           class="cls-26"
           d="m 18.01,46.59 c -2.04,0 -4.55,-1.45 -5.57,-3.22 L 5.69,31.67 c -1.02,-1.77 -1.02,-4.66 0,-6.43 l 6.75,-11.7 c 1.02,-1.77 3.53,-3.22 5.57,-3.22 h 13.51 c 2.04,0 4.55,1.45 5.57,3.22 l 6.75,11.7 c 1.02,1.77 1.02,4.66 0,6.43 l -6.75,11.7 c -1.02,1.77 -3.53,3.22 -5.57,3.22 z"
           id="path79531" />
        <path
           class="cls-39"
           d="m 18.1,46.35 c -2.02,0 -4.49,-1.43 -5.5,-3.17 L 5.93,31.64 c -1.01,-1.75 -1.01,-4.6 0,-6.35 L 12.6,13.75 c 1.01,-1.75 3.48,-3.17 5.5,-3.17 h 13.33 c 2.02,0 4.49,1.43 5.5,3.17 l 6.67,11.54 c 1.01,1.75 1.01,4.6 0,6.35 l -6.67,11.54 c -1.01,1.75 -3.48,3.17 -5.5,3.17 z"
           id="path79533" />
        <path
           class="cls-36"
           d="m 18.19,46.11 c -1.99,0 -4.43,-1.41 -5.42,-3.13 L 6.19,31.59 C 5.2,29.87 5.2,27.05 6.19,25.33 l 6.58,-11.39 c 0.99,-1.72 3.44,-3.13 5.42,-3.13 h 13.15 c 1.99,0 4.43,1.41 5.42,3.13 l 6.58,11.39 c 0.99,1.72 0.99,4.54 0,6.26 l -6.58,11.39 c -0.99,1.72 -3.44,3.13 -5.42,3.13 z"
           id="path79535" />
        <path
           class="cls-37"
           d="m 18.28,45.88 c -1.96,0 -4.37,-1.39 -5.35,-3.09 L 6.44,31.55 c -0.98,-1.7 -0.98,-4.48 0,-6.18 l 6.49,-11.24 c 0.98,-1.7 3.39,-3.09 5.35,-3.09 h 12.98 c 1.96,0 4.37,1.39 5.35,3.09 l 6.49,11.24 c 0.98,1.7 0.98,4.48 0,6.18 l -6.49,11.24 c -0.98,1.7 -3.39,3.09 -5.35,3.09 z"
           id="path79537" />
        <path
           class="cls-38"
           d="m 18.37,45.64 c -1.94,0 -4.31,-1.37 -5.28,-3.05 L 6.69,31.5 c -0.97,-1.68 -0.97,-4.42 0,-6.1 l 6.4,-11.09 c 0.97,-1.68 3.34,-3.05 5.28,-3.05 h 12.8 c 1.94,0 4.31,1.37 5.28,3.05 l 6.4,11.09 c 0.97,1.68 0.97,4.42 0,6.1 l -6.4,11.09 c -0.97,1.68 -3.34,3.05 -5.28,3.05 z"
           id="path79539" />
        <path
           class="cls-35"
           d="m 18.46,45.4 c -1.91,0 -4.25,-1.35 -5.21,-3.01 L 6.94,31.46 c -0.95,-1.65 -0.95,-4.36 0,-6.01 l 6.31,-10.93 c 0.95,-1.65 3.3,-3.01 5.21,-3.01 h 12.62 c 1.91,0 4.25,1.35 5.21,3.01 l 6.31,10.93 c 0.95,1.65 0.95,4.36 0,6.01 l -6.31,10.93 c -0.95,1.65 -3.3,3.01 -5.21,3.01 z"
           id="path79541" />
        <path
           class="cls-34"
           d="m 18.54,45.17 c -1.88,0 -4.19,-1.33 -5.13,-2.96 L 7.19,31.43 c -0.94,-1.63 -0.94,-4.3 0,-5.93 l 6.22,-10.78 c 0.94,-1.63 3.25,-2.96 5.13,-2.96 h 12.45 c 1.88,0 4.19,1.33 5.13,2.96 l 6.22,10.78 c 0.94,1.63 0.94,4.3 0,5.93 l -6.22,10.78 c -0.94,1.63 -3.25,2.96 -5.13,2.96 z"
           id="path79543" />
        <path
           class="cls-31"
           d="m 18.63,44.93 c -1.86,0 -4.13,-1.31 -5.06,-2.92 L 7.43,31.38 C 6.5,29.77 6.5,27.14 7.43,25.54 l 6.14,-10.63 c 0.93,-1.61 3.21,-2.92 5.06,-2.92 H 30.9 c 1.86,0 4.13,1.31 5.06,2.92 l 6.14,10.63 c 0.93,1.61 0.93,4.24 0,5.84 l -6.14,10.63 c -0.93,1.61 -3.21,2.92 -5.06,2.92 z"
           id="path79545" />
        <path
           class="cls-32"
           d="m 18.72,44.69 c -1.83,0 -4.07,-1.3 -4.99,-2.88 L 7.68,31.34 c -0.91,-1.58 -0.91,-4.18 0,-5.76 l 6.05,-10.47 c 0.91,-1.58 3.16,-2.88 4.99,-2.88 h 12.1 c 1.83,0 4.07,1.3 4.99,2.88 l 6.05,10.47 c 0.91,1.58 0.91,4.18 0,5.76 l -6.05,10.47 c -0.91,1.58 -3.16,2.88 -4.99,2.88 z"
           id="path79547" />
        <path
           class="cls-33"
           d="m 18.81,44.46 c -1.8,0 -4.01,-1.28 -4.92,-2.84 L 7.93,31.3 c -0.9,-1.56 -0.9,-4.11 0,-5.68 L 13.89,15.3 c 0.9,-1.56 3.11,-2.84 4.92,-2.84 h 11.92 c 1.8,0 4.01,1.28 4.92,2.84 l 5.96,10.32 c 0.9,1.56 0.9,4.11 0,5.68 l -5.96,10.32 c -0.9,1.56 -3.11,2.84 -4.92,2.84 z"
           id="path79549" />
        <path
           class="cls-48"
           d="m 18.9,44.22 c -1.78,0 -3.95,-1.26 -4.84,-2.8 L 8.19,31.25 C 7.3,29.71 7.3,27.2 8.19,25.66 l 5.87,-10.17 c 0.89,-1.54 3.07,-2.8 4.84,-2.8 h 11.74 c 1.78,0 3.95,1.26 4.84,2.8 l 5.87,10.17 c 0.89,1.54 0.89,4.05 0,5.59 l -5.87,10.17 c -0.89,1.54 -3.07,2.8 -4.84,2.8 z"
           id="path79551" />
        <path
           class="cls-49"
           d="m 18.98,43.98 c -1.75,0 -3.9,-1.24 -4.77,-2.75 L 8.43,31.21 C 7.56,29.7 7.56,27.22 8.43,25.7 l 5.78,-10.02 c 0.87,-1.51 3.02,-2.75 4.77,-2.75 h 11.57 c 1.75,0 3.9,1.24 4.77,2.75 L 41.1,25.7 c 0.87,1.51 0.87,3.99 0,5.51 l -5.78,10.02 c -0.87,1.51 -3.02,2.75 -4.77,2.75 z"
           id="path79553" />
        <path
           class="cls-46"
           d="m 19.07,43.75 c -1.72,0 -3.84,-1.22 -4.7,-2.71 L 8.68,31.18 c -0.86,-1.49 -0.86,-3.93 0,-5.42 l 5.69,-9.86 c 0.86,-1.49 2.97,-2.71 4.7,-2.71 h 11.39 c 1.72,0 3.84,1.22 4.7,2.71 l 5.69,9.86 c 0.86,1.49 0.86,3.93 0,5.42 l -5.69,9.86 c -0.86,1.49 -2.97,2.71 -4.7,2.71 z"
           id="path79555" />
        <path
           class="cls-47"
           d="m 19.16,43.51 c -1.7,0 -3.78,-1.2 -4.62,-2.67 L 8.93,31.13 c -0.85,-1.47 -0.85,-3.87 0,-5.34 l 5.61,-9.71 c 0.85,-1.47 2.93,-2.67 4.62,-2.67 h 11.21 c 1.7,0 3.78,1.2 4.62,2.67 l 5.61,9.71 c 0.85,1.47 0.85,3.87 0,5.34 l -5.61,9.71 c -0.85,1.47 -2.93,2.67 -4.62,2.67 z"
           id="path79557" />
        <path
           class="cls-44"
           d="m 19.25,43.27 c -1.67,0 -3.72,-1.18 -4.55,-2.63 L 9.18,31.08 c -0.83,-1.45 -0.83,-3.81 0,-5.26 l 5.52,-9.56 c 0.83,-1.45 2.88,-2.63 4.55,-2.63 h 11.04 c 1.67,0 3.72,1.18 4.55,2.63 l 5.52,9.56 c 0.83,1.45 0.83,3.81 0,5.26 l -5.52,9.56 c -0.83,1.45 -2.88,2.63 -4.55,2.63 z"
           id="path79559" />
        <path
           class="cls-43"
           d="m 19.34,43.04 c -1.64,0 -3.66,-1.16 -4.48,-2.59 L 9.43,31.04 c -0.82,-1.42 -0.82,-3.75 0,-5.17 l 5.43,-9.41 c 0.82,-1.42 2.84,-2.59 4.48,-2.59 H 30.2 c 1.64,0 3.66,1.16 4.48,2.59 l 5.43,9.41 c 0.82,1.42 0.82,3.75 0,5.17 l -5.43,9.41 c -0.82,1.42 -2.84,2.59 -4.48,2.59 z"
           id="path79561" />
        <path
           class="cls-45"
           d="m 19.43,42.8 c -1.62,0 -3.6,-1.14 -4.41,-2.54 L 9.68,31.01 c -0.81,-1.4 -0.81,-3.69 0,-5.09 l 5.34,-9.25 c 0.81,-1.4 2.79,-2.54 4.41,-2.54 h 10.68 c 1.62,0 3.6,1.14 4.41,2.54 l 5.34,9.25 c 0.81,1.4 0.81,3.69 0,5.09 l -5.34,9.25 c -0.81,1.4 -2.79,2.54 -4.41,2.54 z"
           id="path79563" />
        <path
           class="cls-40"
           d="m 19.51,42.56 c -1.59,0 -3.54,-1.13 -4.33,-2.5 l -5.25,-9.1 c -0.79,-1.38 -0.79,-3.63 0,-5 l 5.25,-9.1 c 0.79,-1.38 2.74,-2.5 4.33,-2.5 h 10.51 c 1.59,0 3.54,1.13 4.33,2.5 l 5.25,9.1 c 0.79,1.38 0.79,3.63 0,5 l -5.25,9.1 c -0.79,1.38 -2.74,2.5 -4.33,2.5 z"
           id="path79565" />
        <path
           class="cls-41"
           d="m 19.6,42.32 c -1.56,0 -3.48,-1.11 -4.26,-2.46 l -5.17,-8.95 c -0.78,-1.35 -0.78,-3.57 0,-4.92 l 5.17,-8.95 c 0.78,-1.35 2.7,-2.46 4.26,-2.46 h 10.33 c 1.56,0 3.48,1.11 4.26,2.46 l 5.17,8.95 c 0.78,1.35 0.78,3.57 0,4.92 l -5.17,8.95 c -0.78,1.35 -2.7,2.46 -4.26,2.46 z"
           id="path79567" />
        <path
           class="cls-42"
           d="m 19.69,42.09 c -1.54,0 -3.42,-1.09 -4.19,-2.42 l -5.08,-8.79 c -0.77,-1.33 -0.77,-3.51 0,-4.84 l 5.08,-8.79 c 0.77,-1.33 2.65,-2.42 4.19,-2.42 h 10.15 c 1.54,0 3.42,1.09 4.19,2.42 l 5.08,8.79 c 0.77,1.33 0.77,3.51 0,4.84 l -5.08,8.79 c -0.77,1.33 -2.65,2.42 -4.19,2.42 z"
           id="path79569" />
        <path
           class="cls-50"
           d="m 19.78,41.85 c -1.51,0 -3.36,-1.07 -4.11,-2.38 l -4.99,-8.64 c -0.75,-1.31 -0.75,-3.44 0,-4.75 l 4.99,-8.64 c 0.75,-1.31 2.61,-2.38 4.11,-2.38 h 9.98 c 1.51,0 3.36,1.07 4.11,2.38 l 4.99,8.64 c 0.75,1.31 0.75,3.44 0,4.75 l -4.99,8.64 c -0.75,1.31 -2.61,2.38 -4.11,2.38 z"
           id="path79571" />
        <path
           class="cls-51"
           d="m 19.87,41.61 c -1.48,0 -3.3,-1.05 -4.04,-2.33 l -4.9,-8.49 c -0.74,-1.28 -0.74,-3.38 0,-4.67 l 4.9,-8.49 c 0.74,-1.28 2.56,-2.33 4.04,-2.33 h 9.8 c 1.48,0 3.3,1.05 4.04,2.33 l 4.9,8.49 c 0.74,1.28 0.74,3.38 0,4.67 l -4.9,8.49 c -0.74,1.28 -2.56,2.33 -4.04,2.33 z"
           id="path79573" />
        <path
           d="m 19.96,41.38 c -1.46,0 -3.24,-1.03 -3.97,-2.29 l -4.81,-8.34 c -0.73,-1.26 -0.73,-3.32 0,-4.58 l 4.81,-8.34 c 0.73,-1.26 2.51,-2.29 3.97,-2.29 h 9.63 c 1.46,0 3.24,1.03 3.97,2.29 l 4.81,8.34 c 0.73,1.26 0.73,3.32 0,4.58 l -4.81,8.34 c -0.73,1.26 -2.51,2.29 -3.97,2.29 z"
           id="path79575" />
      </g>
      <g
         id="g79591">
        <polygon
           class="cls-1"
           points="30.82,22.41 43.76,0 17.88,0 "
           id="polygon79579"
           style="fill:url(#linearGradient79732)" />
        <polygon
           class="cls-12"
           points="4.94,22.41 30.82,22.41 17.88,0 "
           id="polygon79581"
           style="fill:url(#linear-gradient-2)" />
        <polygon
           class="cls-10"
           points="4.94,22.41 17.88,44.82 30.82,22.41 "
           id="polygon79583"
           style="fill:url(#linear-gradient-3)" />
        <polygon
           class="cls-11"
           points="43.76,44.82 56.69,22.41 30.82,22.41 "
           id="polygon79585"
           style="fill:url(#linear-gradient-4)" />
        <polygon
           class="cls-15"
           points="43.76,0 30.82,22.41 56.69,22.41 "
           id="polygon79587"
           style="fill:url(#linear-gradient-5)" />
        <polygon
           class="cls-13"
           points="43.76,44.82 30.82,22.41 17.88,44.82 "
           id="polygon79589"
           style="fill:url(#linear-gradient-6)" />
      </g>
      <g
         id="g79605">
        <polygon
           class="cls-14"
           points="30.82,22.41 43.1,1.13 18.53,1.13 "
           id="polygon79593"
           style="fill:url(#linearGradient79734)" />
        <polygon
           class="cls-8"
           points="6.25,22.41 30.82,22.41 18.53,1.13 "
           id="polygon79595"
           style="fill:url(#linear-gradient-8)" />
        <polygon
           class="cls-9"
           points="6.25,22.41 18.53,43.68 30.82,22.41 "
           id="polygon79597"
           style="fill:url(#linear-gradient-9)" />
        <polygon
           class="cls-53"
           points="43.1,43.68 55.38,22.41 30.82,22.41 "
           id="polygon79599"
           style="fill:url(#linear-gradient-10)" />
        <polygon
           class="cls-54"
           points="43.1,1.13 30.82,22.41 55.38,22.41 "
           id="polygon79601"
           style="fill:url(#linear-gradient-11)" />
        <polygon
           class="cls-52"
           points="43.1,43.68 30.82,22.41 18.53,43.68 "
           id="polygon79603"
           style="fill:url(#linear-gradient-12)" />
      </g>
    </g>
  </g>
</svg>
